<svg width="1011" height="728" fill="none" xmlns="http://www.w3.org/2000/svg"><g clip-path="url(#clip0)"><path d="M1010.89 727.284c-52.087-7.629-102.181-14.206-150.28-19.73l19.02-30.778c-6.412-1.894-34.585 15.652-34.585 15.652l24.967-89.48c-32.248 3.107-48.658 94.513-48.658 94.513l-36.024-31.096 17.438 34.854c-147.213-15.196-274.351-21.165-381.29-21.854l16.279-26.342c-6.412-1.894-34.585 15.651-34.585 15.651l24.967-89.48c-32.248 3.107-48.657 94.513-48.657 94.513l-36.025-31.096 18.469 36.916c-89.651 1.086-162.76 5.872-219.191 11.451 16.468-41.078 72.394-79.96 72.394-79.96-42.708 10.436-65.112 28.152-76.82 44.71-.895-50.818 5.126-145 49.856-249.095 0 0-88.296 160.409-77.048 268.408l1.344 19.175C37.625 702.841 0 712 0 712l1010.89 15.284z" fill="#4D4981"/><g filter="url(#filter0_d)"><path d="M537.526 29.13v648.2a29.137 29.137 0 01-29.13 29.11h-263.15a29.076 29.076 0 01-29.13-29.11V29.13A29.13 29.13 0 01245.246 0h39.38v5.05a23.991 23.991 0 0023.98 23.99h133.84a23.786 23.786 0 0014.22-4.68 22.228 22.228 0 002.36-1.98 23.914 23.914 0 007.4-17.33V0h41.97a29.117 29.117 0 0126.915 17.981 29.096 29.096 0 012.215 11.15z" fill="#4D4981"/></g><path d="M289.426 115a7 7 0 100-14 7 7 0 000 14z" fill="#F2F2F2"/><path d="M459.026 22.38a22.228 22.228 0 01-2.36 1.98 125.253 125.253 0 0080.86 60.19v-3.12a122.309 122.309 0 01-78.5-59.05zM399.216 29.04h-3.28a181.663 181.663 0 00141.59 113.05v-3.1a178.55 178.55 0 01-138.31-109.95zM338.796 29.04h-3.16c26.43 91.74 106.18 160.03 201.89 171.12v-3.05c-94.05-11.04-172.43-78.03-198.73-168.07z" fill="#F25F5C"/><path d="M266.426 159.822h-1.822V158h-.355v1.822h-1.823v.356h1.823V162h.355v-1.822h1.822v-.356zM389.426 68.822h-1.822V67h-.355v1.822h-1.823v.356h1.823V71h.355v-1.822h1.822v-.356zM284.426 231.822h-1.822V230h-.355v1.822h-1.823v.356h1.823V234h.355v-1.822h1.822v-.356zM368.426 178.822h-1.822V177h-.355v1.822h-1.823v.356h1.823V181h.355v-1.822h1.822v-.356zM488.426 211.822h-1.822V210h-.355v1.822h-1.823v.356h1.823V214h.355v-1.822h1.822v-.356z" fill="#F2F2F2"/><path d="M467.426 129a4 4 0 100-8 4 4 0 000 8z" fill="#FF6584"/><path d="M324.126 218.8l-2.27.35c.71 4.54 1.27 9.18 1.68 13.77l2.29-.2c-.41-4.65-.98-9.33-1.7-13.92zM317.916 191.46l-2.2.67c1.33 4.4 2.52 8.91 3.53 13.4l2.25-.51c-1.03-4.54-2.24-9.1-3.58-13.56zM308.006 165.24l-2.09.96c1.92 4.19 3.72 8.49 5.35 12.79l2.15-.81a203.02 203.02 0 00-5.41-12.94zM294.606 140.66l-1.94 1.23c2.47 3.88 4.84 7.9 7.04 11.93l2.02-1.1c-2.22-4.08-4.62-8.14-7.12-12.06zM277.946 118.13l-1.75 1.49c2.98 3.5 5.88 7.16 8.62 10.86l1.84-1.37c-2.76-3.74-5.69-7.44-8.71-10.98zM258.366 98.07l-1.53 1.71c3.44 3.07 6.81 6.3 10.02 9.59l1.65-1.61c-3.25-3.33-6.66-6.59-10.14-9.69zM236.246 80.85l-1.29 1.9c3.82 2.57 7.6 5.31 11.23 8.14l1.421-1.81a208.048 208.048 0 00-11.361-8.23zM216.116 68.89v2.6c2.39 1.25 4.76 2.56 7.08 3.9l1.15-1.99a207.73 207.73 0 00-8.23-4.51zM323.607 434.803c.373-2.236.714-4.519 1.014-6.785l2.28.302a209.346 209.346 0 01-1.026 6.861l-2.268-.378zM317.198 461.782l2.197.685a210.752 210.752 0 003.708-13.532l-2.24-.53a206.413 206.413 0 01-3.665 13.377zM307.156 487.614l2.087.978a200.488 200.488 0 005.524-12.884l-2.146-.837a195.592 195.592 0 01-5.465 12.743zM293.645 511.847l1.928 1.252a205.3 205.3 0 007.254-12.009l-2.005-1.125a203.726 203.726 0 01-7.177 11.882zM276.928 533.986l1.743 1.51a213.009 213.009 0 008.836-10.91l-1.841-1.377a202.126 202.126 0 01-8.738 10.777zM257.353 553.631l1.515 1.729a206.547 206.547 0 0010.24-9.592l-1.626-1.629a211.134 211.134 0 01-10.129 9.492zM235.3 570.422l1.271 1.923a210.92 210.92 0 0011.438-8.112l-1.391-1.836a201.21 201.21 0 01-11.318 8.025zM224.606 579.65c-2.78 1.57-5.62 3.09-8.49 4.53v-2.58c2.48-1.26 4.94-2.59 7.35-3.94l1.14 1.99zM324.281 247.106l2.299-.042c.042 2.321.045 4.654.009 6.936l-2.298-.036c.035-2.255.032-4.563-.01-6.858z" fill="#E6E6E6"/><path d="M226.216 301.632h235.211a65.999 65.999 0 0165.999 66v8.736h-235.21a65.999 65.999 0 01-66-66v-8.736z" fill="#fff"/><path d="M382.316 705.522c-.229-.375-5.64-9.411-7.516-28.172-1.721-17.213-.615-46.227 14.432-86.699 28.506-76.671-6.569-138.533-6.928-139.149l1.731-1.004c.091.156 9.142 15.929 14.488 41.044a179.061 179.061 0 01-7.416 99.807c-28.457 76.54-7.301 112.773-7.084 113.13l-1.707 1.043z" fill="#F2F2F2"/><path d="M371.17 447c7.179 0 13-5.82 13-13s-5.821-13-13-13c-7.18 0-13 5.82-13 13s5.82 13 13 13z" fill="#F25F5C"/><path d="M412.17 495c7.179 0 13-5.82 13-13s-5.821-13-13-13c-7.18 0-13 5.82-13 13s5.82 13 13 13z" fill="#F2F2F2"/><path d="M384.17 527c7.179 0 13-5.82 13-13s-5.821-13-13-13c-7.18 0-13 5.82-13 13s5.82 13 13 13zM418.17 554c7.179 0 13-5.82 13-13s-5.821-13-13-13c-7.18 0-13 5.82-13 13s5.82 13 13 13z" fill="#F25F5C"/><path d="M374.17 596c7.179 0 13-5.82 13-13s-5.821-13-13-13c-7.18 0-13 5.82-13 13s5.82 13 13 13zM390.17 706s-13-32 26-56l-26 56zM374.182 705.42s-5.917-34.03-51.709-33.738l51.709 33.738z" fill="#F2F2F2"/><path opacity=".2" d="M322.426 419c44.183 0 80-35.817 80-80s-35.817-80-80-80c-44.182 0-80 35.817-80 80s35.818 80 80 80z" fill="#F25F5C"/><path opacity=".2" d="M322.426 395.338c31.115 0 56.338-25.223 56.338-56.338 0-31.115-25.223-56.338-56.338-56.338-31.114 0-56.338 25.223-56.338 56.338 0 31.115 25.224 56.338 56.338 56.338z" fill="#F25F5C"/><path d="M322.426 376.183c20.536 0 37.184-16.647 37.184-37.183s-16.648-37.183-37.184-37.183c-20.535 0-37.183 16.647-37.183 37.183s16.648 37.183 37.183 37.183z" fill="#F25F5C"/><path d="M329.187 330.98a6.77 6.77 0 00-.838-3.263 6.766 6.766 0 00-8.823-2.846 6.757 6.757 0 00-3.369 8.636 6.76 6.76 0 001.999 2.712l-2.49 17.429h13.521l-2.49-17.429a6.746 6.746 0 002.49-5.239z" fill="#fff"/><path d="M696.107 53.3s-22.302-19.995-52.294 17.688c-29.992 37.682-76.903 56.139-87.67 70.751 0 0 44.604-18.457 59.985-26.147 15.381-7.691 14.612-6.152 14.612-6.152s-20.764 14.611-24.61 29.223c-3.845 14.611-.769 26.916-7.69 41.528-6.921 14.611 132.274 9.997 132.274 9.997s13.842-23.84 9.997-48.449c-3.845-24.609-1.538-85.363-44.604-88.439z" fill="#2F2E41"/><path d="M653.925 116.202s4.849 33.947-15.935 41.568c-20.783 7.62-13.163 18.012-13.163 18.012l31.176 15.242 33.254-10.392 11.085-16.627s-18.013-4.157-13.163-16.627c4.849-12.471 6.235-16.627 6.235-16.627l-39.489-14.549z" fill="#FFB9B9"/><path opacity=".1" d="M653.925 116.202s4.849 33.947-15.935 41.568c-20.783 7.62-13.163 18.012-13.163 18.012l31.176 15.242 33.254-10.392 11.085-16.627s-18.013-4.157-13.163-16.627c4.849-12.471 6.235-16.627 6.235-16.627l-39.489-14.549z" fill="#000"/><path d="M741.216 213.193s-4.849 63.737-3.464 66.508c1.386 2.771 0 99.069 0 99.069s9.699 51.959-2.771 54.73c-12.47 2.772-9.699-58.194-9.699-58.194l-12.47-80.364 1.385-79.671 27.019-2.078z" fill="#FFB9B9"/><path opacity=".1" d="M741.216 213.193s-4.849 63.737-3.464 66.508c1.386 2.771 0 99.069 0 99.069s9.699 51.959-2.771 54.73c-12.47 2.772-9.699-58.194-9.699-58.194l-12.47-80.364 1.385-79.671 27.019-2.078z" fill="#000"/><path d="M606.122 405.096s-22.862 86.599-22.169 128.859c.693 42.26 9.699 101.148 9.699 101.148s1.385 25.633-.693 28.404c-2.078 2.771 10.392 14.549 10.392 14.549l13.163-7.621 4.849-5.542v-4.85s-7.62-23.555-1.385-42.26c6.235-18.706 9.699-65.815 3.464-80.364l42.953-127.473-60.273-4.85z" fill="#FFB9B9"/><path d="M604.737 666.971s-8.314-10.392-13.856-6.928c-5.543 3.464-14.549 27.019-14.549 27.019s-31.176 29.79-9.006 31.176c22.169 1.385 31.868-6.236 34.639-11.778 2.772-5.542 28.405-20.091 28.405-20.091s-2.771-26.326-6.928-27.019c-4.157-.693-10.392 10.392-10.392 10.392l-8.313-2.771z" fill="#2F2E41"/><path d="M681.636 410.638v85.906a265.719 265.719 0 002.079 31.176c2.078 15.241-11.778 128.859-11.778 128.859l1.386 20.091 17.32-1.386 2.078-17.319 24.94-76.207s8.314-46.417 4.157-63.737 21.477-128.166 21.477-128.166l-61.659 20.783z" fill="#FFB9B9"/><path d="M667.78 671.821l5.131-1.116s3.876-8.584 8.725-6.505a52.268 52.268 0 019.643 5.778l2.135 3.921s4.849 10.392 11.084 17.32c6.235 6.928 13.163 22.169 2.772 23.555-10.392 1.385-24.248 2.078-28.405-1.386-4.157-3.464-1.385-9.006-5.542-10.392-4.157-1.386-7.621-5.542-6.928-6.928.693-1.385 1.385-24.247 1.385-24.247z" fill="#2F2E41"/><path d="M681.636 140.064c17.005 0 30.79-13.785 30.79-30.79s-13.785-30.79-30.79-30.79-30.79 13.785-30.79 30.79 13.785 30.79 30.79 30.79z" fill="#FFB9B9"/><path d="M623.442 163.312l9.151-3.195s-3.609 5.966 15.789 9.43c19.398 3.464 39.488 4.69 48.495-6.661 0 0 3.465-1.652 8.314 3.197 4.85 4.85 7.621 3.464 7.621 3.464l-3.464 18.013-6.928 33.254-9.006 24.94-25.634-5.542-27.711-20.091-10.392-27.019v-24.941l-6.235-4.849z" fill="#F25F5C"/><path d="M707.962 173.011l6.928-4.85s23.555 4.157 24.941 15.242l-18.013 34.639a39.435 39.435 0 01-.693 29.79c-6.928 15.935-6.235 19.399-6.235 19.399l-4.849 20.783-87.985 6.928s-3.464-8.313-4.849-9.699c-1.386-1.385-1.386-6.235 0-6.235 1.385 0 0-2.078-1.386-4.157-1.385-2.078-2.078-2.771 0-5.542 2.079-2.771-3.464-27.712-3.464-27.712v-27.019l-23.555-31.175s8.314-12.47 12.471-13.856c4.156-1.386 23.93-6.85 23.93-6.85l4.474 6.588 6.235 50.143 9.006 30.483 37.921-6.443 14.731-24.733 9.7-29.097.692-16.627z" fill="#F25F5C"/><path d="M734.288 179.246l5.543 4.157s4.849 38.796 3.464 41.567c-1.386 2.771-25.634 5.543-26.326 4.157-.693-1.386 17.319-49.881 17.319-49.881z" fill="#F25F5C"/><path d="M619.978 159.848l6.928 45.724s-6.235 67.894-4.85 81.749l1.386 4.157s-2.771-1.385-3.464 1.386c-.693 2.771 0 11.777 0 11.777s-4.157 4.157-5.543 27.019c-1.385 22.862-18.012 77.593-11.777 79.671 6.235 2.078 43.646 12.47 63.737 10.392 20.091-2.078 92.141-26.326 91.448-32.561-.693-6.235-35.332-94.22-35.332-94.22s-6.235-10.392-6.235-11.777c0-1.386 8.313-6.928 6.235-12.471-2.078-5.542-13.163-63.736-13.163-63.736l7.621-41.568-10.392-2.771-7.621 40.182s-29.79 14.549-60.966 1.386l-6.927-47.11-11.085 2.771z" fill="#4D4791"/><path d="M653.31 87.177s51.267 35.332 65.123 19.398c13.855-15.934-24.248-29.79-24.248-29.79l-31.868-3.464-9.007 13.856z" fill="#2F2E41"/><path d="M573.655 463.042a27.028 27.028 0 10-8.479-10.524L494.47 511.39l-9.415-11.173-4.23 2.829-4.707-5.587 3.868-3.259-4.708-5.587-6.016 5.07 2.897 3.438-6.447 5.431-2.896-3.438-9.455 7.966 4.345 5.157 3.438-2.897 4.707 5.587-4.297 3.621 8.69 10.314-10.314 8.691 10.501 12.462 103.224-86.973zm17.654-39.492a17.882 17.882 0 11-3.043 35.634 17.882 17.882 0 013.043-35.634z" fill="#F25F5C"/><path d="M583.953 221.506s4.849 63.737 3.464 66.508c-1.386 2.771 0 99.069 0 99.069s-9.699 51.96 2.771 54.731c12.47 2.771 9.699-58.195 9.699-58.195l12.47-80.363-1.385-79.671-27.019-2.079z" fill="#FFB9B9"/><path d="M594.345 181.324l-5.543 2.079s-10.392 43.646-7.62 43.646c2.771 0 36.025 4.156 36.025 2.771 0-1.386-6.235-35.333-6.235-35.333l-16.627-13.163z" fill="#F25F5C"/></g><defs><clipPath id="clip0"><path fill="#fff" d="M0 0h1010.89v727.284H0z"/></clipPath><filter id="filter0_d" x="212.116" y="0" width="329.41" height="714.44" filterUnits="userSpaceOnUse" color-interpolation-filters="sRGB"><feFlood flood-opacity="0" result="BackgroundImageFix"/><feColorMatrix in="SourceAlpha" values="0 0 0 0 0 0 0 0 0 0 0 0 0 0 0 0 0 0 127 0"/><feOffset dy="4"/><feGaussianBlur stdDeviation="2"/><feColorMatrix values="0 0 0 0 0 0 0 0 0 0 0 0 0 0 0 0 0 0 0.25 0"/><feBlend in2="BackgroundImageFix" result="effect1_dropShadow"/><feBlend in="SourceGraphic" in2="effect1_dropShadow" result="shape"/></filter></defs></svg>